<?xml version="1.0" ?>
<!DOCTYPE svg  PUBLIC '-//W3C//DTD SVG 1.1//EN'  'http://www.w3.org/Graphics/SVG/1.1/DTD/svg11.dtd'>
<!-- Uploaded to: SVG Repo, www.svgrepo.com, Generator: SVG Repo Mixer Tools -->
<svg fill="#000000" width="800px" height="800px" viewBox="0 0 32 32" enable-background="new 0 0 32 32" version="1.1" xml:space="preserve" xmlns="http://www.w3.org/2000/svg" xmlns:xlink="http://www.w3.org/1999/xlink">
<g id="play"/>
<g id="stop"/>
<g id="pause">
<g>
<path d="M6,4C5.45,4,5,4.45,5,5v22c0,0.55,0.45,1,1,1h3c0.55,0,1-0.45,1-1V5c0-0.55-0.45-1-1-1H6z"/>
<path d="M9,29H6c-1.103,0-2-0.897-2-2V5c0-1.103,0.897-2,2-2h3c1.103,0,2,0.897,2,2v22C11,28.103,10.103,29,9,29z M9,27v1V27L9,27    L9,27z M6,5v22h2.997L9,5H6z"/>
</g>
<g>
<path d="M23,4c-0.55,0-1,0.45-1,1v22c0,0.55,0.45,1,1,1h3c0.55,0,1-0.45,1-1V5c0-0.55-0.45-1-1-1H23z"/>
<path d="M26,29h-3c-1.103,0-2-0.897-2-2V5c0-1.103,0.897-2,2-2h3c1.103,0,2,0.897,2,2v22C28,28.103,27.103,29,26,29z M26,27v1V27    L26,27L26,27z M23,5v22h2.997L26,5H23z"/>
</g>
</g>
<g id="replay"/>
<g id="next"/>
<g id="Layer_8"/>
<g id="search"/>
<g id="list"/>
<g id="love"/>
<g id="menu"/>
<g id="add"/>
<g id="headset"/>
<g id="random"/>
<g id="music"/>
<g id="setting"/>
<g id="Layer_17"/>
<g id="Layer_18"/>
<g id="Layer_19"/>
<g id="Layer_20"/>
<g id="Layer_21"/>
<g id="Layer_22"/>
<g id="Layer_23"/>
<g id="Layer_24"/>
<g id="Layer_25"/>
<g id="Layer_26"/>
</svg>